HIERARCHY
ROOT Trot
{
	OFFSET 0.000000 0.000000 0.000000
	CHANNELS 6 Xposition Yposition Zposition Xrotation Yrotation Zrotation
	JOINT BR_Root
	{
		OFFSET 3.254603 135.715515 -64.430511
		CHANNELS 3 Xrotation Yrotation Zrotation
		JOINT Hip
		{
			OFFSET -1.425135 -1.857422 -0.014275
			CHANNELS 3 Xrotation Yrotation Zrotation
			JOINT B_L_Leg_1
			{
				OFFSET 16.789062 -17.961159 -20.666313
				CHANNELS 3 Xrotation Yrotation Zrotation
				JOINT B_L_Leg_2
				{
					OFFSET -1.722815 -21.725815 31.010002
					CHANNELS 3 Xrotation Yrotation Zrotation
					JOINT B_L_Leg_3
					{
						OFFSET 3.787172 -44.954849 -20.699600
						CHANNELS 3 Xrotation Yrotation Zrotation
						JOINT B_L_Leg_4
						{
							OFFSET -10.138379 -16.239033 32.456482
							CHANNELS 3 Xrotation Yrotation Zrotation
							JOINT B_L_Leg_5
							{
								OFFSET -0.002844 -12.329767 7.301941
								CHANNELS 3 Xrotation Yrotation Zrotation
								JOINT B_L_Leg______END
								{
									OFFSET 0.000343 -7.835012 1.179966
									CHANNELS 3 Xrotation Yrotation Zrotation
									End Site
									{
										OFFSET -0.002120 7.738636 1.700954
									}
								}
							}
						}
					}
				}
			}
			JOINT Tail
			{
				OFFSET 0.562943 -2.034286 -49.509575
				CHANNELS 3 Xrotation Yrotation Zrotation
				JOINT Tail_1
				{
					OFFSET -0.435769 -1.442337 -3.953728
					CHANNELS 3 Xrotation Yrotation Zrotation
					JOINT Tail_2
					{
						OFFSET -0.437800 -1.115036 -4.189613
						CHANNELS 3 Xrotation Yrotation Zrotation
						JOINT Tail_3
						{
							OFFSET -0.833234 -1.520195 -4.727135
							CHANNELS 3 Xrotation Yrotation Zrotation
							JOINT Tail_4
							{
								OFFSET -2.115225 -3.148239 -7.734886
								CHANNELS 3 Xrotation Yrotation Zrotation
								JOINT Tail_5
								{
									OFFSET -3.308044 -4.717758 -8.885956
									CHANNELS 3 Xrotation Yrotation Zrotation
									JOINT Tail_6
									{
										OFFSET -3.996413 -7.309761 -10.662460
										CHANNELS 3 Xrotation Yrotation Zrotation
										JOINT Tail_7
										{
											OFFSET -4.032781 -11.379875 -12.539383
											CHANNELS 3 Xrotation Yrotation Zrotation
											JOINT Tail_8
											{
												OFFSET -3.243986 -14.783592 -15.597519
												CHANNELS 3 Xrotation Yrotation Zrotation
												JOINT Tail_9
												{
													OFFSET -0.470102 -11.725571 -15.679337
													CHANNELS 3 Xrotation Yrotation Zrotation
													JOINT Tail___CAP
													{
														OFFSET 2.462129 -9.909691 -19.671478
														CHANNELS 3 Xrotation Yrotation Zrotation
														End Site
														{
															OFFSET -2.477677 11.965195 18.491257
														}
													}
												}
											}
										}
									}
								}
							}
						}
					}
				}
			}
			JOINT B_R_Leg_1
			{
				OFFSET -16.790987 -17.961319 -20.664642
				CHANNELS 3 Xrotation Yrotation Zrotation
				JOINT B_R_Leg_2
				{
					OFFSET -0.399202 -37.743881 -3.439964
					CHANNELS 3 Xrotation Yrotation Zrotation
					JOINT B_R_Leg_3
					{
						OFFSET -1.260660 -4.846909 -49.382950
						CHANNELS 3 Xrotation Yrotation Zrotation
						JOINT B_R_Leg_4
						{
							OFFSET 5.143605 -36.191017 -9.146988
							CHANNELS 3 Xrotation Yrotation Zrotation
							JOINT B_R_Leg_5
							{
								OFFSET 0.000122 -13.731363 -4.097672
								CHANNELS 3 Xrotation Yrotation Zrotation
								JOINT B_R_Leg______END
								{
									OFFSET -0.000067 -5.146017 -6.024796
									CHANNELS 3 Xrotation Yrotation Zrotation
									End Site
									{
										OFFSET -0.000142 -2.650213 -7.466995
									}
								}
							}
						}
					}
				}
			}
		}
		JOINT Spine_1
		{
			OFFSET -1.425135 -1.857422 -0.014275
			CHANNELS 3 Xrotation Yrotation Zrotation
			JOINT Spine_2
			{
				OFFSET 1.606895 -5.541656 20.321503
				CHANNELS 3 Xrotation Yrotation Zrotation
				JOINT Spine_3
				{
					OFFSET 0.139740 -2.305725 21.475285
					CHANNELS 3 Xrotation Yrotation Zrotation
					JOINT Spine_4
					{
						OFFSET -1.029412 1.027710 22.026760
						CHANNELS 3 Xrotation Yrotation Zrotation
						JOINT Spine_5
						{
							OFFSET -0.230233 0.851891 20.375977
							CHANNELS 3 Xrotation Yrotation Zrotation
							JOINT F_L_Leg_1
							{
								OFFSET 7.529340 -14.077263 7.214756
								CHANNELS 3 Xrotation Yrotation Zrotation
								JOINT F_L_Leg_2
								{
									OFFSET 6.788572 -6.827026 20.164944
									CHANNELS 3 Xrotation Yrotation Zrotation
									JOINT F_L_Leg_3
									{
										OFFSET 1.115059 -32.145233 -9.588570
										CHANNELS 3 Xrotation Yrotation Zrotation
										JOINT F_L_Leg_4
										{
											OFFSET -0.446026 -16.121868 38.055214
											CHANNELS 3 Xrotation Yrotation Zrotation
											JOINT F_L_Leg_5
											{
												OFFSET -0.440815 -29.732534 9.838615
												CHANNELS 3 Xrotation Yrotation Zrotation
												JOINT F_L_Leg_6
												{
													OFFSET -0.000343 -7.746641 11.079582
													CHANNELS 3 Xrotation Yrotation Zrotation
													JOINT F_L_Leg______END
													{
														OFFSET -0.000238 -7.819831 3.753235
														CHANNELS 3 Xrotation Yrotation Zrotation
														End Site
														{
															OFFSET 0.000208 8.673900 0.000786
														}
													}
												}
											}
										}
									}
								}
							}
							JOINT Neck_1
							{
								OFFSET -0.174966 -12.019432 20.589619
								CHANNELS 3 Xrotation Yrotation Zrotation
								JOINT Neck_2
								{
									OFFSET -0.189782 15.531860 5.924107
									CHANNELS 3 Xrotation Yrotation Zrotation
									JOINT Neck_3
									{
										OFFSET -0.161191 12.111649 4.711941
										CHANNELS 3 Xrotation Yrotation Zrotation
										JOINT Neck_4
										{
											OFFSET -0.166135 13.662430 5.821850
											CHANNELS 3 Xrotation Yrotation Zrotation
											JOINT Neck_5
											{
												OFFSET -0.041304 10.437881 6.821949
												CHANNELS 3 Xrotation Yrotation Zrotation
												JOINT Neck_6
												{
													OFFSET -0.071238 8.444626 8.812466
													CHANNELS 3 Xrotation Yrotation Zrotation
													JOINT Head
													{
														OFFSET -0.355749 4.747559 13.124374
														CHANNELS 3 Xrotation Yrotation Zrotation
														JOINT Ear_L_1
														{
															OFFSET 8.605932 6.136246 -0.500618
															CHANNELS 3 Xrotation Yrotation Zrotation
															JOINT Ear_L_2
															{
																OFFSET 3.040809 5.225372 1.262527
																CHANNELS 3 Xrotation Yrotation Zrotation
																JOINT Ear_L_______END
																{
																	OFFSET 4.692491 5.919937 3.379524
																	CHANNELS 3 Xrotation Yrotation Zrotation
																	End Site
																	{
																		OFFSET 4.938814 6.551498 -1.082787
																	}
																}
															}
														}
														JOINT Upper_Lip
														{
															OFFSET 0.085861 -27.989960 33.095734
															CHANNELS 3 Xrotation Yrotation Zrotation
															JOINT Upper_Lip________END
															{
																OFFSET -0.036102 -6.414398 6.931297
																CHANNELS 3 Xrotation Yrotation Zrotation
																End Site
																{
																	OFFSET -0.003267 9.309784 -1.586411
																}
															}
														}
														JOINT Jaw
														{
															OFFSET -0.060823 -12.865738 2.790787
															CHANNELS 3 Xrotation Yrotation Zrotation
															JOINT Lower_Lip
															{
																OFFSET 0.191039 -22.540009 25.212280
																CHANNELS 3 Xrotation Yrotation Zrotation
																JOINT Lower_Lip_________END
																{
																	OFFSET -0.031646 -4.882492 5.910133
																	CHANNELS 3 Xrotation Yrotation Zrotation
																	End Site
																	{
																		OFFSET -0.002651 7.557159 -1.287933
																	}
																}
															}
														}
														JOINT Ear_R_1
														{
															OFFSET -8.616610 6.110977 -0.613823
															CHANNELS 3 Xrotation Yrotation Zrotation
															JOINT Ear_R_2
															{
																OFFSET -3.072563 5.216400 1.221497
																CHANNELS 3 Xrotation Yrotation Zrotation
																JOINT Ear_R_______END
																{
																	OFFSET -4.754074 5.906662 3.316498
																	CHANNELS 3 Xrotation Yrotation Zrotation
																	End Site
																	{
																		OFFSET 4.943489 -6.536896 1.148872
																	}
																}
															}
														}
													}
												}
											}
										}
									}
								}
							}
							JOINT F_R_Leg_1
							{
								OFFSET -7.561445 -14.144829 7.047081
								CHANNELS 3 Xrotation Yrotation Zrotation
								JOINT F_R_Leg_2
								{
									OFFSET -7.490087 -18.410370 10.211670
									CHANNELS 3 Xrotation Yrotation Zrotation
									JOINT F_R_Leg_3
									{
										OFFSET -4.092322 -17.009804 -28.642815
										CHANNELS 3 Xrotation Yrotation Zrotation
										JOINT F_R_Leg_4
										{
											OFFSET 0.673744 -33.769989 23.821278
											CHANNELS 3 Xrotation Yrotation Zrotation
											JOINT F_R_Leg_5
											{
												OFFSET -0.709656 -16.370253 -26.693209
												CHANNELS 3 Xrotation Yrotation Zrotation
												JOINT F_R_Leg_6
												{
													OFFSET -0.002195 -3.763660 -12.984716
													CHANNELS 3 Xrotation Yrotation Zrotation
													JOINT F_R_Leg______END
													{
														OFFSET -0.001354 0.744717 -8.641863
														CHANNELS 3 Xrotation Yrotation Zrotation
														End Site
														{
															OFFSET -0.001043 4.411440 -7.468306
														}
													}
												}
											}
										}
									}
								}
							}
							JOINT Reins_Hold
							{
								OFFSET -0.821133 40.370613 -10.559194
								CHANNELS 3 Xrotation Yrotation Zrotation
								End Site
								{
									OFFSET 0.614936 24.797165 -4.177474
								}
							}
						}
						JOINT LegStrap_L_01
						{
							OFFSET 29.529762 -10.500198 -7.799863
							CHANNELS 3 Xrotation Yrotation Zrotation
							JOINT LegStrap_L_02
							{
								OFFSET 1.435596 -2.596252 -0.084677
								CHANNELS 3 Xrotation Yrotation Zrotation
								JOINT LegStrap_L_03
								{
									OFFSET 1.605007 -6.952461 -0.948510
									CHANNELS 3 Xrotation Yrotation Zrotation
									JOINT LegStrap_L_04
									{
										OFFSET 1.460255 -4.845482 0.436653
										CHANNELS 3 Xrotation Yrotation Zrotation
										JOINT LegStrap_L_05
										{
											OFFSET 2.671787 -5.420998 -0.167254
											CHANNELS 3 Xrotation Yrotation Zrotation
											JOINT LegStrap_L_06_Twist
											{
												OFFSET 2.622787 -6.875168 -1.868454
												CHANNELS 3 Xrotation Yrotation Zrotation
												End Site
												{
													OFFSET -1.404224 6.684860 3.313437
												}
											}
										}
									}
								}
							}
						}
						JOINT LegStrap_R_01
						{
							OFFSET -29.253990 -10.763046 -8.453058
							CHANNELS 3 Xrotation Yrotation Zrotation
							JOINT LegStrap_R_02
							{
								OFFSET -1.981247 -1.738564 -0.007399
								CHANNELS 3 Xrotation Yrotation Zrotation
								JOINT LegStrap_R_03
								{
									OFFSET -1.103901 -7.222908 -0.102202
									CHANNELS 3 Xrotation Yrotation Zrotation
									JOINT LegStrap_R_04
									{
										OFFSET -1.463400 -7.123474 -0.432649
										CHANNELS 3 Xrotation Yrotation Zrotation
										JOINT LegStrap_R_05
										{
											OFFSET -1.022081 -4.663269 -1.267930
											CHANNELS 3 Xrotation Yrotation Zrotation
											JOINT LegStrap_R_06_Twist
											{
												OFFSET -3.106174 -5.807907 -3.417712
												CHANNELS 3 Xrotation Yrotation Zrotation
												End Site
												{
													OFFSET 6.904819 -2.701591 0.292732
												}
											}
										}
									}
								}
							}
						}
					}
				}
			}
		}
	}
}
MOTION
Frames: 4
Frame Time: 0.033333
0.000000 0.000000 0.000000 0.000006 0.000000 -0.000000 -0.000049 -0.000046 -0.000252 0.000048 0.000062 0.000259 62.843587 7.141596 -3.962071 -0.805488 -1.802291 3.784581 13.131906 1.136713 4.285612 7.569096 -6.692820 -2.118883 -10.288690 -0.000836 -0.006484 0.000012 0.000000 0.000000 -7.586620 -22.204375 6.828704 2.036739 7.457697 -3.155189 0.685070 -2.759046 1.163626 0.854252 -3.534265 1.415172 0.631905 -3.161570 1.708791 -0.508138 -0.942685 0.916369 -2.895493 3.494749 -1.675472 -0.033110 11.002505 -10.616387 11.252977 3.696220 -4.906969 4.846451 22.866584 -13.808738 0.000009 -0.000001 0.000002 -47.713185 3.097583 -7.243080 1.603992 -12.089911 1.445500 -39.700522 -8.493615 2.968703 37.519879 13.776233 -1.103134 -4.312450 -0.000075 0.000110 0.000017 -0.000000 0.000000 3.428867 -2.319233 -0.678421 -5.464343 0.567901 0.254712 1.358539 -2.309093 0.113536 0.652138 2.688613 -0.158796 0.000003 -0.000009 -0.000009 36.743979 12.483459 -10.562205 -2.251127 -11.322139 13.334003 36.865710 -7.039018 -4.007469 48.710583 -4.340569 4.217114 -19.827998 10.105530 -3.597503 -31.400077 0.000828 -0.000211 -0.000010 0.000000 0.000000 0.276477 -0.001277 0.007466 -1.913737 -0.013831 0.002762 1.719064 0.050545 -0.030586 2.850700 -0.001827 -0.046039 -1.402040 0.017517 -0.041138 0.000023 -0.000003 -0.000004 -3.415655 -0.012544 0.079504 -0.000029 -0.000023 0.000062 0.000036 0.000002 -0.000066 -0.000015 0.000011 -0.000002 -0.000025 -0.000006 -0.000001 0.000001 -0.000000 -0.000000 0.000010 -0.000009 -0.000007 -0.000024 0.000001 0.000001 -0.000003 -0.000000 -0.000000 -0.000094 -0.000052 -0.000004 0.000092 0.000059 -0.000027 -0.000011 -0.000010 0.000005 -33.170117 12.064877 -19.261543 -4.385585 -12.880892 21.428117 12.359470 -1.141074 2.525576 -48.931656 -5.033757 -3.414159 -21.559938 7.805574 3.458797 15.501691 -0.000873 -0.002419 -0.000007 -0.000000 -0.000000 -18.288644 0.526331 3.270311 -0.000000 0.000000 -0.000006 -0.000001 -0.000000 0.000001 -1.796817 -0.019609 -0.012332 -1.798718 -0.034790 -0.012956 -1.801209 -0.021747 -0.007330 -3.384882 2.921362 -6.080375 -0.000006 0.000001 -0.000024 -0.000001 0.000003 0.000001 -0.000004 -0.000203 -0.000006 -1.794677 0.004203 -0.026840 -1.792281 0.007065 -0.025625 -2.654911 -2.372225 6.361680 
0.000000 0.000000 0.000000 0.000006 0.000000 -0.000000 -0.000049 -0.000046 -0.000252 0.000048 0.000062 0.000259 61.546486 9.145692 -4.616917 -0.866752 -1.953763 4.096520 14.211774 1.235849 4.645727 17.420951 -8.537859 0.113149 -9.645127 -0.000818 -0.006075 0.000017 0.000000 0.000000 -5.897882 -21.801489 7.111629 2.011600 7.430892 -3.141785 0.685551 -2.752388 1.161556 0.858264 -3.524993 1.410908 0.634740 -3.151086 1.698839 -0.511821 -0.931093 0.910667 -2.901769 3.512724 -1.686370 -0.009350 10.893810 -10.521321 11.152813 3.624913 -4.819665 4.852029 22.816904 -13.777746 0.000004 0.000000 -0.000002 -50.479807 1.867974 -6.673317 1.392239 -10.668148 1.254263 -33.947854 -7.168564 2.918245 32.208017 13.212712 -0.392191 -5.130882 -0.000090 0.000129 -0.000005 -0.000000 0.000000 3.461495 -1.403841 -0.481301 -5.390200 -0.052292 0.143475 1.423439 -2.868105 0.138508 0.529458 2.859158 -0.172087 0.000004 -0.000008 -0.000009 35.132212 11.973842 -10.159138 -1.862397 -10.680594 12.930960 32.470774 -5.663369 -4.444670 51.151324 -4.559634 4.555239 -8.657995 8.671596 -4.970122 -27.885274 0.000732 -0.000209 0.000000 0.000000 -0.000000 0.082621 -0.005285 0.006377 -1.642100 -0.011358 0.001365 2.107456 0.056794 -0.026811 2.910122 -0.005711 -0.034940 -1.776184 0.027483 -0.053550 0.000025 -0.000008 -0.000009 -3.756794 -0.010884 0.119114 -0.000018 -0.000022 0.000053 0.000039 -0.000004 -0.000067 -0.000012 0.000008 -0.000003 -0.000032 -0.000007 -0.000002 -0.000000 -0.000000 0.000000 0.000012 -0.000008 -0.000009 -0.000033 0.000001 0.000001 0.000002 -0.000000 0.000000 -0.000085 -0.000042 -0.000004 0.000088 0.000067 -0.000025 -0.000005 -0.000004 -0.000001 -31.999952 11.399791 -18.018329 -4.467254 -11.303863 19.973415 14.359028 -1.108395 3.250317 -53.635853 -5.257738 -3.708779 -27.242633 7.814306 4.399958 15.542176 -0.000875 -0.002425 -0.000005 -0.000000 -0.000000 -17.475828 0.457387 3.768917 -0.000000 0.000000 -0.000005 -0.000000 -0.000000 0.000004 -1.568150 -0.015766 -0.006502 -1.567010 -0.031491 -0.007764 -1.573073 -0.015848 -0.001284 -3.315636 3.404146 -7.255235 -0.000006 0.000001 -0.000023 -0.000001 0.000004 -0.000001 -0.000000 0.000007 -0.000002 -1.565793 0.005898 -0.019225 -1.562668 0.010024 -0.020727 -2.602882 -2.696091 7.646955 
0.000000 0.000000 0.000000 0.000006 0.000000 -0.000000 -0.000049 -0.000046 -0.000252 0.000048 0.000062 0.000259 60.048578 11.489258 -5.913610 -1.018846 -2.339885 4.888951 16.959396 1.641784 5.486256 23.089444 -10.191727 2.180100 -8.853307 -0.000789 -0.005573 0.000016 -0.000000 0.000000 -3.306816 -21.226261 7.494808 1.969428 7.384001 -3.115009 0.686204 -2.736750 1.153049 0.859681 -3.502251 1.402051 0.638119 -3.128090 1.682683 -0.519791 -0.909140 0.898404 -2.910993 3.545285 -1.706920 0.037773 10.674592 -10.338529 10.953150 3.486723 -4.650441 4.861582 22.713941 -13.715343 0.000008 0.000002 -0.000002 -53.535958 0.573983 -5.647568 1.068765 -8.351112 0.957506 -26.685482 -5.511881 2.658769 25.607470 11.562908 0.168646 -5.710488 -0.000100 0.000143 0.000002 -0.000000 0.000000 3.326801 -0.506040 -0.283891 -5.198480 -0.644197 0.036877 1.604101 -3.345311 0.164663 0.357766 2.970298 -0.178545 0.000004 -0.000009 -0.000009 33.355936 11.392354 -9.716769 -1.430625 -9.984540 12.503285 28.324289 -4.423904 -4.544344 51.252196 -4.568492 4.569344 3.124710 6.792809 -5.846319 -24.365674 0.000637 -0.000202 -0.000000 -0.000000 0.000000 0.114885 -0.004095 0.010067 -1.444592 -0.009376 -0.000992 2.313920 0.062150 -0.029900 2.615912 0.000304 -0.042131 -2.185203 0.052183 -0.081182 0.000024 -0.000018 -0.000019 -3.617479 -0.038583 0.181201 -0.000015 -0.000015 0.000038 0.000035 -0.000006 -0.000066 -0.000014 0.000007 0.000000 -0.000017 -0.000006 -0.000001 0.000002 -0.000000 0.000000 0.000012 -0.000006 -0.000011 -0.000031 0.000000 0.000001 0.000010 0.000000 0.000000 -0.000102 -0.000021 -0.000064 0.000086 0.000074 -0.000026 -0.000011 -0.000008 0.000005 -30.743108 10.720358 -16.869169 -4.273225 -9.701287 18.616497 16.472217 -0.973844 3.908847 -58.698092 -5.451863 -3.996908 -32.913158 7.643312 5.377562 15.575304 -0.000877 -0.002430 -0.000000 0.000000 -0.000000 -16.498667 0.397150 4.318871 0.000000 0.000000 -0.000004 -0.000001 0.000000 0.000001 -1.404182 -0.012394 -0.000717 -1.403703 -0.026026 -0.002904 -1.399549 -0.034288 0.002035 -3.267672 3.759751 -8.139398 -0.000006 0.000001 -0.000022 -0.000000 0.000004 -0.000000 0.000000 0.000004 -0.000000 -1.402181 0.006785 -0.015241 -1.400032 0.009868 -0.015385 -2.582162 -2.930844 8.610885 
0.000000 0.000000 0.000000 0.000006 0.000000 -0.000000 -0.000078 -0.000041 -0.000251 0.000047 0.000062 0.000259 58.878334 13.143348 -6.905359 -1.163689 -2.723177 5.670262 19.664139 2.047390 6.315125 24.603426 -11.376123 3.171408 -7.898765 -0.000743 -0.004967 0.000022 -0.000000 0.000000 -0.701968 -20.563587 7.776178 1.906318 7.314181 -3.073272 0.687346 -2.714451 1.142473 0.864099 -3.474687 1.386960 0.642038 -3.092574 1.660326 -0.531848 -0.877474 0.879869 -2.919845 3.589045 -1.735864 0.098095 10.362764 -10.069371 10.665767 3.287139 -4.408571 4.869694 22.552089 -13.614441 0.000010 0.000000 -0.000000 -56.734003 -0.754088 -4.258274 0.703693 -5.639014 0.628479 -18.020254 -3.591193 2.078859 17.847325 9.193219 0.602386 -6.034193 -0.000106 0.000150 0.000009 0.000000 -0.000000 3.052959 0.355680 -0.082045 -4.906614 -1.197293 -0.064195 1.879535 -3.730502 0.196095 0.147753 3.014893 -0.181415 0.000003 -0.000009 -0.000009 31.425618 10.733020 -9.242941 -0.947398 -9.235623 12.056334 24.828723 -3.439483 -4.462970 50.395328 -4.492092 4.449219 13.467674 5.030172 -6.175219 -21.202567 0.000553 -0.000190 -0.000020 0.000000 -0.000000 0.344616 -0.002195 0.015963 -1.345817 -0.005249 -0.006726 2.352492 0.064311 -0.037055 2.097916 0.023361 -0.078547 -2.761985 0.105950 -0.130402 0.000019 -0.000038 -0.000038 -3.128407 -0.124741 0.298596 -0.000029 -0.000001 0.000028 0.000023 -0.000007 -0.000073 -0.000032 0.000023 -0.000008 -0.000009 -0.000006 -0.000001 -0.000001 0.000000 -0.000000 0.000010 -0.000004 -0.000015 -0.000038 0.000000 0.000000 0.000020 -0.000000 0.000000 -0.000099 0.000024 -0.000139 0.000067 0.000080 -0.000016 -0.000026 -0.000018 0.000007 -29.413738 10.029318 -15.806584 -3.940682 -8.153538 17.303437 18.332178 -0.781061 4.513408 -63.038575 -5.582708 -4.227123 -38.890435 7.275514 6.292969 15.601110 -0.000878 -0.002433 -0.000016 0.000000 0.000000 -15.410426 0.356302 4.883238 -0.000001 0.000000 -0.000002 0.000000 -0.000000 -0.000001 -1.317935 -0.011802 -0.000690 -1.320130 -0.024886 0.000484 -1.320154 -0.016138 0.005635 -3.260528 3.969345 -8.652537 -0.000007 0.000001 -0.000021 -0.000000 0.000004 -0.000000 -0.000000 0.000005 -0.000001 -1.319060 0.008697 -0.011721 -1.314225 0.012444 -0.011490 -2.603797 -3.065017 9.167708 
